<?xml version="1.0" encoding="UTF-8"?>
<svg version="1.1" xmlns="http://www.w3.org/2000/svg" width="800" height="800">
<path d="M0 0 C1.64766357 0.24943359 1.64766357 0.24943359 3.32861328 0.50390625 C79.47087547 12.12046836 151.43804723 46.25557769 207.73828125 98.9609375 C209.83978694 100.92817165 211.95902995 102.87096826 214.10546875 104.7890625 C221.20552196 111.14829023 227.65410052 117.89336295 234 125 C234.73605469 125.78632813 235.47210937 126.57265625 236.23046875 127.3828125 C242.82160985 134.46618818 248.60925177 142.12824487 254.40087891 149.86572266 C255.87794914 151.83710403 257.36571326 153.79992016 258.85546875 155.76171875 C270.29706286 170.95301015 280.11493352 187.20027321 289 204 C289.43666992 204.82274414 289.87333984 205.64548828 290.32324219 206.49316406 C310.76556738 245.33211019 323.26006625 286.73674587 330 330 C330.24991699 331.51787109 330.24991699 331.51787109 330.50488281 333.06640625 C336.07636248 368.08713557 335.71581643 407.02437916 330 442 C329.75056641 443.64766357 329.75056641 443.64766357 329.49609375 445.32861328 C317.87953164 521.47087547 283.74442231 593.43804723 231.0390625 649.73828125 C229.07182835 651.83978694 227.12903174 653.95902995 225.2109375 656.10546875 C218.85170977 663.20552196 212.10663705 669.65410052 205 676 C204.21367188 676.73605469 203.42734375 677.47210937 202.6171875 678.23046875 C195.53381182 684.82160985 187.87175513 690.60925177 180.13427734 696.40087891 C178.16289597 697.87794914 176.20007984 699.36571326 174.23828125 700.85546875 C159.04698985 712.29706286 142.79972679 722.11493352 126 731 C125.17725586 731.43666992 124.35451172 731.87333984 123.50683594 732.32324219 C84.66788981 752.76556738 43.26325413 765.26006625 0 772 C-1.51787109 772.24991699 -1.51787109 772.24991699 -3.06640625 772.50488281 C-38.08713557 778.07636248 -77.02437916 777.71581643 -112 772 C-113.64766357 771.75056641 -113.64766357 771.75056641 -115.32861328 771.49609375 C-191.47087547 759.87953164 -263.43804723 725.74442231 -319.73828125 673.0390625 C-321.83978694 671.07182835 -323.95902995 669.12903174 -326.10546875 667.2109375 C-333.20552196 660.85170977 -339.65410052 654.10663705 -346 647 C-346.73605469 646.21367188 -347.47210938 645.42734375 -348.23046875 644.6171875 C-354.82160985 637.53381182 -360.60925177 629.87175513 -366.40087891 622.13427734 C-367.87794914 620.16289597 -369.36571326 618.20007984 -370.85546875 616.23828125 C-382.29706286 601.04698985 -392.11493352 584.79972679 -401 568 C-401.43666992 567.17725586 -401.87333984 566.35451172 -402.32324219 565.50683594 C-422.76556738 526.66788981 -435.26006625 485.26325413 -442 442 C-442.24991699 440.48212891 -442.24991699 440.48212891 -442.50488281 438.93359375 C-448.07636248 403.91286443 -447.71581643 364.97562084 -442 330 C-441.75056641 328.35233643 -441.75056641 328.35233643 -441.49609375 326.67138672 C-429.87953164 250.52912453 -395.74442231 178.56195277 -343.0390625 122.26171875 C-341.07182835 120.16021306 -339.12903174 118.04097005 -337.2109375 115.89453125 C-330.85170977 108.79447804 -324.10663705 102.34589948 -317 96 C-316.21367187 95.26394531 -315.42734375 94.52789062 -314.6171875 93.76953125 C-307.53381182 87.17839015 -299.87175513 81.39074823 -292.13427734 75.59912109 C-290.16289597 74.12205086 -288.20007984 72.63428674 -286.23828125 71.14453125 C-271.04698985 59.70293714 -254.79972679 49.88506648 -238 41 C-237.17725586 40.56333008 -236.35451172 40.12666016 -235.50683594 39.67675781 C-196.66788981 19.23443262 -155.26325413 6.73993375 -112 0 C-110.48212891 -0.24991699 -110.48212891 -0.24991699 -108.93359375 -0.50488281 C-73.91286443 -6.07636248 -34.97562084 -5.71581643 0 0 Z " fill="#262B34" transform="translate(456,15)"/>
<path d="M0 0 C1.31498132 -0.00623996 2.62996264 -0.01247993 3.98479187 -0.01890898 C7.61047885 -0.03551645 11.2357415 -0.02739549 14.86142945 -0.0149641 C18.78111195 -0.00588029 22.70072361 -0.0198999 26.62039185 -0.03088379 C34.28998653 -0.04863919 41.95942434 -0.04484206 49.62902509 -0.03323323 C55.86534827 -0.02418611 62.10162761 -0.02298043 68.33795547 -0.02732849 C69.22680222 -0.02794142 70.11564897 -0.02855436 71.03143046 -0.02918586 C72.83734036 -0.03046482 74.64325024 -0.03176167 76.44916011 -0.03307623 C93.37071914 -0.04447364 110.2921914 -0.03138218 127.21373619 -0.00987476 C141.71741423 0.00798929 156.22096417 0.00489621 170.72463989 -0.0135498 C187.58407102 -0.034982 204.44342611 -0.0433686 221.30286896 -0.03110075 C223.1026097 -0.02982662 224.90235045 -0.02856913 226.70209122 -0.02732849 C227.5874963 -0.02671139 228.47290138 -0.02609429 229.38513692 -0.02545848 C235.60932455 -0.02201217 241.83346376 -0.02781854 248.05764389 -0.0372467 C255.64969974 -0.04849447 263.24159028 -0.04536874 270.83362733 -0.02412373 C274.70353512 -0.01364956 278.57316784 -0.00942882 282.44307327 -0.02272034 C286.64685604 -0.03693957 290.84995123 -0.01990082 295.05371094 0 C296.26482099 -0.00892289 297.47593105 -0.01784577 298.72374141 -0.02703905 C310.75224151 0.0830816 320.90443296 3.01091514 329.65383911 11.50793457 C337.06399852 19.28566141 340.762438 27.62070042 341.21633911 38.38293457 C340.82165065 49.65622364 336.83983861 58.39108989 328.98196411 66.41809082 C319.42494057 74.99696263 309.98044398 76.9567621 297.41410828 76.89561462 C296.07305342 76.89979193 294.7320021 76.90527163 293.3909573 76.91193444 C289.72082515 76.92635571 286.0509182 76.92215481 282.3807739 76.91476762 C278.41681219 76.91003002 274.45289878 76.922551 270.48895264 76.93278503 C262.72921205 76.94996654 254.96955247 76.95081443 247.20979781 76.94557213 C240.9018954 76.94152814 234.59401691 76.94297671 228.28611565 76.94832039 C226.93865068 76.94944302 226.93865068 76.94944302 225.5639642 76.95058833 C223.73896305 76.95211983 221.9139619 76.95365818 220.08896076 76.9552033 C202.98105438 76.96892589 185.87319374 76.96349225 168.76528841 76.95201809 C153.11960431 76.94208504 137.47403846 76.95502805 121.82837261 76.97895228 C105.75589719 77.00334365 89.68347686 77.01295111 73.61098331 77.00629956 C64.59047471 77.00280754 55.57005705 77.0050383 46.54956245 77.02255058 C38.87101022 77.03727299 31.19261298 77.03790747 23.51406378 77.02047967 C19.59795583 77.01196776 15.68212477 77.00982463 11.76603127 77.02513123 C8.17772826 77.03898278 4.58993925 77.03420974 1.00166594 77.01489199 C-0.90405177 77.00935892 -2.80979567 77.02339966 -4.71546358 77.0382461 C-16.11453722 76.94054733 -24.36859983 73.15254749 -32.84616089 65.50793457 C-41.17782062 56.97261205 -43.73898062 46.68825637 -43.61959839 35.17980957 C-42.83699577 24.67057447 -37.80720188 16.63400465 -30.24459839 9.53527832 C-20.90492704 1.76321965 -11.96418411 -0.08782294 0 0 Z " fill="#FEFEFE" transform="translate(251.34616088867188,243.4920654296875)"/>
<path d="M0 0 C1.70583144 -0.00734697 3.41165791 -0.01593502 5.11747742 -0.02566528 C9.735475 -0.04782703 14.35329386 -0.05081454 18.97133732 -0.04891777 C22.83530904 -0.04879779 26.69924328 -0.05737336 30.56320453 -0.06569529 C39.68555388 -0.0849112 48.80781174 -0.08782022 57.93017578 -0.08105469 C67.31878103 -0.07441932 76.70699286 -0.09726213 86.09551835 -0.13436842 C94.17480416 -0.16513326 102.25396387 -0.17641798 110.33330703 -0.1725316 C115.1504081 -0.17047064 119.96720312 -0.17584168 124.78424835 -0.20042419 C129.31856825 -0.22280041 133.85225206 -0.22072383 138.3865757 -0.20049667 C140.04248112 -0.19710546 141.69843026 -0.20209351 143.35427666 -0.21648026 C156.01443783 -0.31881124 166.9851649 1.39313148 176.47558594 10.54882812 C183.70059019 18.30841789 188.28919799 26.46624879 188.71777344 37.29492188 C188.2243857 49.5659524 183.9221989 58.93467955 175.18652344 67.38476562 C164.63327958 76.42767204 152.50182384 77.01264145 139.25683594 76.95336914 C137.57996873 76.96044126 135.9031079 76.96919166 134.22625732 76.97947693 C129.70553912 77.00183385 125.18517326 76.99906381 120.66442108 76.99015546 C116.87728603 76.98501852 113.09021562 76.99235982 109.30308723 76.99962753 C100.36378366 77.01658246 91.42465098 77.0131046 82.48535156 76.99633789 C73.28977777 76.97941266 64.09467857 76.99526664 54.89915657 77.02756077 C46.97688875 77.05432028 39.05476809 77.06151578 31.13245964 77.05304569 C26.41268241 77.04813602 21.69319066 77.0502256 16.97344971 77.07083321 C12.53425935 77.08929128 8.09574798 77.08310914 3.65659332 77.0586338 C2.03616925 77.05365824 0.41569251 77.05703019 -1.20468903 77.06978226 C-14.95332485 77.16934799 -25.52541478 74.57978236 -35.65722656 64.74023438 C-43.86758899 55.77524305 -46.43000752 45.85858799 -46.12988281 33.81445312 C-45.61526488 28.78970047 -44.17515794 24.83821836 -41.78222656 20.41992188 C-41.18087891 19.26556641 -41.18087891 19.26556641 -40.56738281 18.08789062 C-35.87888152 10.1106435 -28.17906891 4.21103835 -19.48789215 1.05488586 C-13.16021644 -0.4300893 -6.46708575 -0.01316398 0 0 Z " fill="#1BBB9A" transform="translate(403.7822265625,481.580078125)"/>
<path d="M0 0 C1.78923889 -0.01073296 1.78923889 -0.01073296 3.61462402 -0.02168274 C5.57286354 -0.02571609 5.57286354 -0.02571609 7.57066345 -0.02983093 C8.96225656 -0.036099 10.353848 -0.0427461 11.74543762 -0.04974365 C16.31338849 -0.07075255 20.88133955 -0.08114577 25.44932556 -0.09111023 C27.02534439 -0.09515952 28.60136304 -0.09927649 30.17738152 -0.10346031 C37.5857489 -0.12250813 44.99410638 -0.1367378 52.40249354 -0.14507228 C60.93526721 -0.15483165 69.46778057 -0.18111868 78.00046259 -0.22157317 C84.60703208 -0.25181311 91.21352731 -0.26654875 97.82016462 -0.26985329 C101.76035496 -0.27219557 105.7002671 -0.28104743 109.64038277 -0.30631447 C113.35297367 -0.32973754 117.06510604 -0.33377201 120.77775192 -0.32355309 C122.77354637 -0.32282815 124.76931827 -0.34182053 126.76501465 -0.36161804 C138.84062341 -0.29246642 148.35438279 2.68084596 157.16416931 11.14717102 C166.24030264 21.41491923 168.08200735 31.67428055 167.38194275 45.0304718 C166.41871147 54.39282071 160.9703956 61.98614463 154.16416931 68.14717102 C144.69705192 75.61234857 134.92415241 76.59225606 123.17417908 76.55122375 C121.78022213 76.55693626 120.38626985 76.56390391 118.99232483 76.57202148 C115.22984141 76.58987067 111.46759225 76.58880022 107.70507932 76.5830791 C104.55415724 76.57997535 101.40327938 76.5860928 98.25236362 76.59211785 C90.81431761 76.6061343 83.37638652 76.60462576 75.93833923 76.59321594 C68.28618862 76.58173649 60.63438857 76.59581389 52.98228413 76.62261242 C46.3917424 76.64482193 39.8013103 76.65139504 33.21073383 76.64553601 C29.28353691 76.64217787 25.35656464 76.6445049 21.42939949 76.66178703 C17.73475828 76.67733839 14.04063352 76.67321107 10.34601212 76.65448189 C8.35845365 76.64908344 6.37087154 76.6632474 4.38336182 76.67817688 C-7.81543186 76.57853554 -16.70085219 73.01226854 -25.48817444 64.55732727 C-30.85939604 58.74875429 -35.35531534 51.1557601 -35.83583069 43.14717102 C-35.89770569 42.27447571 -35.95958069 41.4017804 -36.02333069 40.50263977 C-36.4780385 29.43334655 -33.35878818 20.32882064 -25.83583069 12.14717102 C-18.37456451 4.59302601 -10.73884283 0.04427373 0 0 Z " fill="#FEFEFE" transform="translate(243.83583068847656,362.8528289794922)"/>
<path d="M0 0 C1.20901726 -0.00788544 1.20901726 -0.00788544 2.44245911 -0.01593018 C5.08301698 -0.02903663 7.72296234 -0.02042476 10.36352539 -0.01025391 C12.21383275 -0.01227753 14.06413933 -0.01519137 15.91444397 -0.01895142 C19.78353504 -0.02336228 23.65241764 -0.01698444 27.52148438 -0.00292969 C32.4619176 0.01414941 37.40186134 0.0043212 42.34227657 -0.01364708 C46.16089004 -0.0245287 49.97938899 -0.02101835 53.79800606 -0.0132637 C55.61872987 -0.01127316 57.43946434 -0.01368037 59.2601757 -0.02070236 C61.81305025 -0.02838796 64.36515127 -0.01661383 66.91796875 0 C67.65850494 -0.00607269 68.39904114 -0.01214539 69.16201782 -0.0184021 C79.55835779 0.10588789 88.23032225 4.40454204 95.72680664 11.46240234 C103.87319468 20.1066252 106.81390505 28.65322996 106.67211914 40.36474609 C106.15534877 50.89054249 101.52677104 60.37319674 93.84008789 67.56396484 C85.43459379 74.18346863 77.93715072 76.52753246 67.38793945 76.56518555 C66.58236603 76.57175674 65.7767926 76.57832794 64.94680786 76.58509827 C62.29013971 76.60475178 59.63352787 76.61647599 56.97680664 76.62646484 C55.61043186 76.63257813 55.61043186 76.63257813 54.21645355 76.63881493 C49.39503713 76.65964163 44.57364888 76.67395812 39.75219727 76.68334961 C34.78810342 76.69440798 29.82445854 76.72881109 24.86052322 76.76852131 C21.02906494 76.7947385 17.19771287 76.80304596 13.36617279 76.80663109 C11.53704546 76.81148369 9.70792246 76.82305962 7.87888336 76.84166908 C-10.35186582 77.01563221 -10.35186582 77.01563221 -17.47631836 72.38818359 C-18.54881836 71.74880859 -19.62131836 71.10943359 -20.72631836 70.45068359 C-29.08818542 64.1792833 -35.51093653 55.82569681 -37.47631836 45.38818359 C-38.3216223 32.48104269 -36.74969307 23.27125868 -28.78491211 12.93896484 C-21.02345243 4.3632742 -11.4744406 -0.0938385 0 0 Z " fill="#1BBB9A" transform="translate(485.476318359375,362.61181640625)"/>
<path d="M0 0 C1.08220322 -0.01606293 2.16440643 -0.03212585 3.27940369 -0.04867554 C8.25364477 -0.09334929 13.22775309 -0.13423579 18.20214844 -0.15722656 C20.81584616 -0.17372698 23.42949987 -0.20093763 26.04296875 -0.23925781 C29.82648965 -0.29441467 33.60895177 -0.31596634 37.39282227 -0.33056641 C38.54640732 -0.35323578 39.69999237 -0.37590515 40.88853455 -0.39926147 C52.45587785 -0.36957647 62.14953749 3.36253241 70.43969727 11.50537109 C78.40956196 20.94300778 80.9337807 29.91873071 80.19360352 41.98193359 C79.08976093 53.3292328 73.7472047 62.24925784 65.02172852 69.50537109 C56.29470656 75.42023152 46.68688746 76.80758477 36.36547852 76.75927734 C35.23452759 76.76547592 34.10357666 76.7716745 32.93835449 76.77806091 C30.5652756 76.78511317 28.19214676 76.78206634 25.8190918 76.76928711 C22.2177313 76.75540387 18.61896509 76.78958783 15.01782227 76.82763672 C12.69620706 76.828588 10.37458864 76.8267286 8.05297852 76.82177734 C6.99324829 76.83503555 5.93351807 76.84829376 4.8416748 76.86195374 C-6.69315429 76.72042383 -15.91934309 72.56561589 -24.16577148 64.58349609 C-27.29565382 61.06237847 -29.43498443 57.50795319 -31.29077148 53.19287109 C-31.60788086 52.49677734 -31.92499023 51.80068359 -32.25170898 51.08349609 C-35.94746505 41.79324691 -35.34285047 31.82969774 -31.54858398 22.68896484 C-25.53939315 10.7638936 -13.85760341 0.18720449 0 0 Z " fill="#FEFEFE" transform="translate(242.290771484375,481.80712890625)"/>
</svg>
